<?xml version="1.0" encoding="UTF-8"?>
<svg id="Layer_1" data-name="Layer 1" xmlns="http://www.w3.org/2000/svg" viewBox="0 0 1080 1080">
  <defs>
    <style>
      .cls-1 {
        fill: #500000;
      }

      .cls-1, .cls-2, .cls-3 {
        stroke-width: 0px;
      }

      .cls-2 {
        fill: #b1b3b6;
      }

      .cls-3 {
        fill: #fff;
      }
    </style>
  </defs>
  <rect class="cls-1" x="294.26" y="171.8" width="446.89" height="450.42"/>
  <polygon class="cls-3" points="681.78 351.05 648.61 351.05 646.67 351.05 645.85 352.79 621.74 402.9 597.63 352.74 596.76 351.05 594.87 351.05 562.78 351.05 559.76 351.05 559.76 354.07 559.76 371.17 559.76 374.24 562.78 374.24 568.25 374.24 568.25 446 562.32 446 559.3 446 559.3 449.02 559.3 466.11 559.3 469.19 562.32 469.19 598.35 469.19 601.42 469.19 601.42 466.11 601.42 449.02 601.42 446 598.35 446 592.11 446 592.11 395.07 619.03 450.55 621.79 456.18 624.56 450.55 651.74 394.92 651.74 446 645.8 446 642.73 446 642.73 449.02 642.73 466.11 642.73 469.19 645.8 469.19 681.78 469.19 684.85 469.19 684.85 466.11 684.85 449.02 684.85 446 681.78 446 675.59 446 675.59 374.24 681.78 374.24 684.85 374.24 684.85 371.17 684.85 354.07 684.85 351.05 681.78 351.05"/>
  <path class="cls-3" d="M472.64,445.9h-9.47l-31.33-72.07h6.04v-23.19h-50.11v23.24h6.91l-31.17,72.02h-12.95v23.19h45.45v-23.19h-6.65l5.12-11.98h37.47l5.12,11.98h-6.86v23.19h45.45v-23.19h-3.02ZM422.22,410.73h-17.4l8.7-20.12,8.7,20.12Z"/>
  <polygon class="cls-3" points="643.65 260.97 390.9 260.97 387.42 260.97 387.42 264.45 387.42 331.96 387.42 335.49 390.9 335.49 434.56 335.49 438.04 335.49 438.04 331.96 438.04 306.88 491.99 306.88 491.99 484.85 466.91 484.85 463.43 484.85 463.43 488.33 463.43 531.99 463.43 535.47 466.91 535.47 567.69 535.47 571.17 535.47 571.17 531.99 571.17 488.33 571.17 484.85 567.69 484.85 542.61 484.85 542.61 306.88 596.2 306.88 596.2 331.65 596.2 335.13 599.73 335.13 643.65 335.13 647.18 335.13 647.18 331.65 647.18 264.45 647.18 260.97 643.65 260.97"/>
  <polygon class="cls-2" points="550.08 505.63 560.78 494.62 560.78 524.77 550.08 514.53 550.08 505.63"/>
  <polygon class="cls-2" points="532.32 495.39 521.62 505.94 521.62 285.89 532.32 296.59 532.32 495.39"/>
  <polygon class="cls-2" points="408.81 282.05 397.81 271.36 631.42 271.36 617.6 282.05 408.81 282.05"/>
  <polygon class="cls-2" points="637.1 325.36 626.4 315.17 626.4 287.99 637.1 277.04 637.1 325.36"/>
  <path class="cls-1" d="M69.66,726.8v29.64h7.32c-.09-5.05,1.2-10.02,3.74-14.38,1.73-2.77,4.43-4.79,7.58-5.68,3.56-.77,7.21-1.11,10.85-1.02h10.85v76.47c.35,3.43-.64,6.86-2.76,9.57-3.68,2.33-8.06,3.31-12.39,2.76v7.06h52.52v-7.11c-3.37.15-6.73-.31-9.93-1.38-1.92-.62-3.49-2.04-4.3-3.89-.7-2.29-1.01-4.67-.92-7.06v-76.42h13.26c2.94-.04,5.86.32,8.7,1.07,2.93,1.05,5.4,3.07,7.01,5.73,2.57,4.35,4.03,9.28,4.25,14.33h7.32v-29.64l-103.09-.05Z"/>
  <path class="cls-1" d="M260.89,814.37c-2.37,3.2-5.65,5.61-9.42,6.91-3.33.92-6.78,1.36-10.24,1.33h-8.39c-2.91.11-5.81-.17-8.65-.82-1.74-.37-3.29-1.33-4.4-2.71-.97-1.39-1.55-3.02-1.69-4.71-.2-1.88-.31-4.88-.31-9.01v-24.77h10.75c2.74-.12,5.49.19,8.14.92,1.76.6,3.17,1.92,3.89,3.63,1,2.72,1.52,5.6,1.54,8.5h7.06v-34.7h-7.22c-.08,2.87-.58,5.72-1.48,8.45-.64,1.74-2.03,3.1-3.79,3.69-2.64.75-5.39,1.08-8.14.97h-10.6v-36.9h19.55c3.91-.11,7.82.19,11.67.87,2.81.74,5.29,2.42,7.01,4.76,2.67,3.89,4.55,8.28,5.53,12.9h6.96l-1.38-27.08h-86.5v7.06c3.47-.17,6.95.32,10.24,1.43,1.88.67,3.38,2.1,4.15,3.94.66,2.26.96,4.61.87,6.96v65.57c.35,3.43-.64,6.86-2.76,9.57-3.68,2.34-8.06,3.32-12.39,2.76v7.06h92.9l.87-34.29h-7.32c-.55,6.37-2.78,12.48-6.45,17.71Z"/>
  <path class="cls-1" d="M460.66,823.23c-2.99.69-6.05.98-9.11.87v7.11h49.14v-7.11c-2.76.14-5.51-.42-7.98-1.64-1.9-1.12-3.44-2.75-4.45-4.71-1.07-2.05-2.76-5.94-5.12-11.67l-31.73-81.23h-7.32l-30.05,78.77c-1.61,4.42-3.58,8.7-5.89,12.8-1.36,2.5-3.33,4.62-5.73,6.14-1.11.58-2.3.99-3.53,1.23-1.76-.25-3.48-.71-5.12-1.38-2.81-1.3-5.32-3.16-7.37-5.48-3.32-3.64-6.45-7.45-9.37-11.41l-25.59-33.27,18.63-21.4c4.04-4.71,7.17-8.04,9.26-10.24,2.15-2.13,4.66-3.86,7.42-5.12,3.23-1.37,6.73-2.01,10.24-1.89v-6.76h-43.15v7.06h3.58c2.46-.19,4.93.2,7.22,1.13,1.27.75,2,2.16,1.89,3.63.04,1.03-.19,2.05-.67,2.97-.46.77-1.43,2.15-2.92,4.09l-16.53,19.5-14.54-18.78c-2.11-2.44-3.71-5.28-4.71-8.34-.2-1.54.73-3,2.2-3.48,2.14-.51,4.35-.73,6.55-.67h3.99v-7.06h-56.92v7.06c3.23-.11,6.46.28,9.57,1.18,2.26.76,4.29,2.06,5.94,3.79,1.69,1.79,4.45,5.12,8.24,10.24l25.13,33.12-18.53,21.75c-3.92,4.74-8.17,9.2-12.69,13.36-2.53,2.39-5.51,4.27-8.75,5.53-2.88.92-5.88,1.4-8.91,1.43v7.06h46.07v-7.32c-2.41.04-4.82-.06-7.22-.31-1.65-.15-3.23-.75-4.56-1.74-1.28-1.03-1.98-2.61-1.89-4.25.79-3.83,2.78-7.31,5.68-9.93l16.23-18.94,16.89,22.27c1.88,2.06,3.27,4.53,4.04,7.22.21,2.12-1.13,4.07-3.17,4.66-2.34.71-4.77,1.06-7.22,1.02h-4.86v7.11h88.04v-7.11c-2.83.05-5.65-.36-8.34-1.23-2.39-.89-3.86-3.3-3.53-5.84.28-2.84,1-5.62,2.15-8.24l2.51-6.76h33.83l5.12,12.34c.6,1.5.91,3.1.92,4.71.18,1.94-1.12,3.72-3.02,4.15ZM426.83,794.46l13.72-36.34,14.38,36.34h-28.1Z"/>
  <path class="cls-1" d="M571.38,820.31c2.61-3.04,4.69-6.5,6.14-10.24,1.32-3.25,2.02-6.73,2.05-10.24.15-5.15-1.36-10.21-4.3-14.43-2.94-3.95-6.61-7.3-10.8-9.88-5.73-3.38-11.62-6.47-17.66-9.26-6.24-2.87-10.75-5.12-13.51-6.65-2.6-1.39-4.9-3.29-6.76-5.58-1.71-2.19-2.61-4.9-2.56-7.68-.12-3.54,1.39-6.93,4.09-9.21,3.05-2.49,6.92-3.77,10.85-3.58,12.42,0,21.16,7.75,26.21,23.24h7.06v-28.51h-7.06c-.52,3.06-1.34,6.06-2.46,8.96-3.1-3.68-6.94-6.68-11.26-8.8-4.22-2.13-8.89-3.23-13.62-3.22-5.78-.12-11.48,1.35-16.48,4.25-4.52,2.62-8.25,6.4-10.8,10.95-2.37,4.11-3.64,8.77-3.69,13.51,0,2.59.39,5.16,1.18,7.63.95,2.86,2.36,5.54,4.2,7.93,2.56,3.31,5.59,6.23,9.01,8.65,4.82,3.43,9.96,6.38,15.36,8.8,4.04,1.79,7.63,3.53,10.75,5.12,2.62,1.29,5.1,2.83,7.42,4.61,1.7,1.32,3.11,2.97,4.15,4.86,2.75,5.74,1.45,12.61-3.22,16.94-3.42,2.93-7.84,4.43-12.34,4.2-5.35.17-10.59-1.51-14.84-4.76-3.94-3.06-7.14-6.96-9.37-11.41-2.23-4.5-3.95-9.24-5.12-14.13h-6.91v34.91h6.91c.56-3.53,1.6-6.98,3.07-10.24,3.6,4.58,8.28,8.2,13.62,10.54,5.07,2.29,10.56,3.49,16.12,3.53,5,.1,9.95-.96,14.49-3.07,3.86-1.86,7.29-4.49,10.08-7.73Z"/>
  <path class="cls-1" d="M726.41,817.75c-1.07-2.05-2.76-5.94-5.12-11.67l-31.79-81.28h-7.27l-30.1,78.77c-1.61,4.4-3.58,8.66-5.89,12.75-1.36,2.5-3.33,4.61-5.73,6.14-2.27,1.12-4.79,1.67-7.32,1.59v7.11h35.83v-7.06c-2.83.05-5.65-.36-8.34-1.23-2.41-.87-3.9-3.29-3.58-5.84.28-2.84,1-5.62,2.15-8.24l2.56-6.76h33.83l5.12,12.34c.6,1.5.91,3.1.92,4.71.19,1.91-1.02,3.68-2.87,4.2-2.99.69-6.05.98-9.11.87v7.11h49.14v-7.17c-2.78.16-5.54-.41-8.04-1.64-1.88-1.13-3.4-2.76-4.4-4.71ZM664.99,794.41l13.67-36.34,14.38,36.34h-28.05Z"/>
  <path class="cls-1" d="M928.03,818.83c-.74,1.84-2.23,3.27-4.09,3.94-3.2,1.07-6.57,1.52-9.93,1.33v7.11h52.26v-7.11c-3.47.2-6.95-.27-10.24-1.38-1.93-.67-3.48-2.15-4.25-4.04-.68-2.22-.99-4.54-.92-6.86v-65.57c-.32-3.42.68-6.83,2.82-9.52,3.69-2.36,8.09-3.36,12.44-2.82v-7.06h-37.16l-34.7,73.65-34.65-73.65h-38.13v7.06c3.56-.22,7.13.28,10.49,1.48,1.91.79,3.32,2.44,3.79,4.45.57,3.14.81,6.33.72,9.52v59.12c.04,2.49-.07,4.99-.31,7.47-.15,1.61-.73,3.15-1.69,4.45-1.13,1.37-2.68,2.34-4.4,2.76-2.79.71-5.67,1.02-8.55.92v7.06h38.54v-7.06c-2.87.08-5.75-.21-8.55-.87-1.76-.42-3.33-1.39-4.5-2.76-.97-1.3-1.57-2.84-1.74-4.45-.28-2.5-.4-5.01-.36-7.52v-62.14l39.92,84.81h4.71l39.41-84.81v65.41c.11,2.39-.2,4.78-.92,7.06Z"/>
  <path class="cls-1" d="M114.71,867.3c1.22-.03,2.44.09,3.63.36.74.15,1.41.55,1.89,1.13.38.53.63,1.14.72,1.79.06,1.04.06,2.08,0,3.12v15.36c0,1.71-.08,3.42-.26,5.12-.2,1.45-.59,2.86-1.18,4.2-.83,1.82-2.23,3.31-3.99,4.25-1.89,1.08-4.02,1.64-6.19,1.64-2,0-3.96-.52-5.68-1.54-1.65-.92-2.94-2.36-3.69-4.09-.41-1.18-.69-2.4-.82-3.63-.19-1.6-.27-3.2-.26-4.81v-17.91c-.04-.99.1-1.98.41-2.92.35-.76,1-1.33,1.79-1.59,1.34-.44,2.74-.63,4.15-.56v-2.92h-21.65v2.92c1.79-.23,3.61.19,5.12,1.18.83,1.14,1.22,2.54,1.07,3.94v21.6c.07,1.02.24,2.03.51,3.02.28,1.1.68,2.16,1.18,3.17.91,1.9,2.33,3.51,4.09,4.66,1.77,1.18,3.72,2.05,5.78,2.56,1.99.53,4.03.8,6.09.82,2.86-.03,5.69-.59,8.34-1.64,2.91-1.1,5.31-3.23,6.76-5.99.82-1.37,1.35-2.88,1.59-4.45.23-2.19.33-4.4.31-6.6v-15.87c-.02-1.27.08-2.54.31-3.79.2-.83.76-1.53,1.54-1.89,1.31-.54,2.73-.76,4.15-.67v-2.92h-15.87l.15,2.97Z"/>
  <path class="cls-1" d="M215.9,864.43v2.92c1.44-.08,2.87.16,4.2.72.81.4,1.41,1.13,1.64,2,.24,1.21.34,2.45.31,3.69v19.45l-24.52-28.92h-12.49v2.92c1.17.07,2.32.37,3.38.87.74.35,1.34.93,1.74,1.64.36.72.59,1.5.67,2.3v26.31c.04,1.32-.06,2.64-.31,3.94-.22.84-.8,1.53-1.59,1.89-1.32.52-2.73.75-4.15.67v2.92h16.02v-2.92c-1.5.08-3-.14-4.4-.67-.83-.33-1.45-1.03-1.69-1.89-.26-1.3-.36-2.62-.31-3.94v-23.7l28.15,33.47h2.92v-34.14c-.04-1.32.06-2.64.31-3.94.24-.83.84-1.51,1.64-1.84,1.41-.5,2.91-.71,4.4-.61v-2.87l-15.92-.26Z"/>
  <path class="cls-1" d="M286.23,867.35c1.79-.2,3.6.21,5.12,1.18.93,1.09,1.35,2.52,1.18,3.94v27.03c.04,1.01-.1,2.01-.41,2.97-.36.76-1.03,1.32-1.84,1.54-1.32.42-2.71.61-4.09.56v2.92h21.91v-2.92c-1.43.07-2.85-.14-4.2-.61-.78-.26-1.41-.83-1.74-1.59-.32-.94-.46-1.93-.41-2.92v-27.03c-.05-1.02.09-2.05.41-3.02.37-.75,1.04-1.31,1.84-1.54,1.34-.43,2.74-.62,4.15-.56v-2.92h-21.91v2.97Z"/>
  <path class="cls-1" d="M393.92,867.35c1.45-.02,2.9.17,4.3.56.92.36,1.43,1.18,1.43,2.56-.18,1.33-.58,2.63-1.18,3.84l-9.16,21.45-9.88-23.03c-.48-.96-.74-2-.77-3.07-.12-.85.37-1.66,1.18-1.95,1.41-.31,2.85-.48,4.3-.51v-2.92h-21.86v2.92c1.28-.05,2.57.12,3.79.51.85.32,1.57.91,2.05,1.69.79,1.42,1.49,2.89,2.1,4.4l14.69,34.34h2.97l13.87-32.6c.87-2,1.54-3.48,2.05-4.4.4-.79.9-1.53,1.48-2.2.5-.54,1.14-.95,1.84-1.18.85-.26,1.72-.4,2.61-.41v-2.87h-15.82v2.87Z"/>
  <path class="cls-1" d="M497.36,900.52c-.97,1.32-2.33,2.3-3.89,2.82-1.35.39-2.74.58-4.15.56h-3.48c-1.2.04-2.41-.06-3.58-.31-.71-.19-1.34-.6-1.79-1.18-.4-.58-.64-1.25-.72-1.95v-13.97h4.4c1.14-.05,2.28.09,3.38.41.73.23,1.31.77,1.59,1.48.43,1.13.65,2.32.67,3.53h2.92v-14.08h-3.02c-.04,1.18-.25,2.35-.61,3.48-.28.71-.86,1.26-1.59,1.48-1.1.31-2.24.45-3.38.41h-4.35v-15.36h8.09c1.61-.04,3.23.1,4.81.41,1.16.3,2.19.99,2.92,1.95,1.08,1.54,1.85,3.28,2.25,5.12h2.92l-.51-11.16h-35.83v2.92c1.42-.07,2.84.12,4.2.56.79.27,1.43.86,1.74,1.64.26.93.38,1.9.36,2.87v27.03c.14,1.42-.27,2.85-1.13,3.99-1.53.94-3.33,1.34-5.12,1.13v2.92h38.34l.36-14.13h-2.92c-.29,2.68-1.28,5.24-2.87,7.42Z"/>
  <path class="cls-1" d="M602.7,903.84c-.93-.56-1.75-1.29-2.41-2.15-1.18-1.49-2.28-3.04-3.28-4.66-2.3-3.58-3.99-6.09-5.12-7.42-1.1-1.36-2.43-2.5-3.94-3.38,1.95-.49,3.79-1.34,5.43-2.51,1.3-.94,2.34-2.19,3.02-3.63.61-1.3.93-2.71.92-4.15.01-1.79-.45-3.56-1.33-5.12-.87-1.47-2.06-2.73-3.48-3.69-1.4-.92-2.94-1.59-4.56-2-1.44-.37-2.92-.63-4.4-.77-1.84,0-3.84-.31-5.99-.41h-8.6l-9.93.31v3.02c1.79-.23,3.61.19,5.12,1.18.83,1.14,1.22,2.54,1.07,3.94v27.13c.15,1.41-.25,2.83-1.13,3.94-1.51.99-3.33,1.4-5.12,1.18v2.92h21.55v-2.92c-1.39.06-2.78-.15-4.09-.61-.82-.23-1.49-.84-1.79-1.64-.31-.92-.45-1.89-.41-2.87v-11.47h1.54c1.46-.06,2.92.04,4.35.31.91.26,1.72.79,2.3,1.54,1.09,1.42,2.08,2.9,2.97,4.45l2.92,4.81,1.79,2.97c.77,1.18,1.43,2.25,2.05,3.12.47.72,1,1.41,1.59,2.05h11.47v-2.87c-.86-.08-1.71-.29-2.51-.61ZM584.38,882.96c-2.54,1.12-5.31,1.66-8.09,1.59h-2v-16.94h2c2.83-.12,5.64.46,8.19,1.69,2.28,1.47,3.51,4.12,3.17,6.81,0,3.58-1.07,6.04-3.28,6.86Z"/>
  <path class="cls-1" d="M685.52,884.91c-2.4-1.43-4.88-2.73-7.42-3.89-2.61-1.23-4.5-2.15-5.68-2.82-1.08-.6-2.03-1.4-2.82-2.35-.73-.93-1.11-2.09-1.07-3.28-.01-1.49.62-2.91,1.74-3.89,1.29-1.06,2.93-1.61,4.61-1.54,5.25,0,8.92,3.28,11,9.83h2.97v-11.98h-2.97c-.21,1.28-.55,2.53-1.02,3.74-1.3-1.54-2.9-2.8-4.71-3.69-1.78-.88-3.74-1.34-5.73-1.33-2.42-.05-4.81.57-6.91,1.79-1.9,1.11-3.47,2.7-4.56,4.61-1,1.73-1.53,3.69-1.54,5.68,0,1.07.15,2.14.46,3.17.43,1.19,1.03,2.31,1.79,3.33,1.07,1.39,2.35,2.62,3.79,3.63,2,1.44,4.15,2.67,6.4,3.69l4.5,2.15c1.09.56,2.13,1.22,3.12,1.95.71.56,1.3,1.26,1.74,2.05.41.83.6,1.74.56,2.66.03,1.71-.7,3.34-2,4.45-1.42,1.21-3.25,1.83-5.12,1.74-2.25.08-4.46-.63-6.24-2-1.66-1.28-3.01-2.93-3.94-4.81-.95-1.89-1.68-3.88-2.2-5.94h-2.92v14.74h2.92c.25-1.5.68-2.96,1.28-4.35,1.53,1.92,3.49,3.45,5.73,4.45,2.14.96,4.46,1.47,6.81,1.48,2.1.04,4.18-.4,6.09-1.28,1.63-.85,3.06-2.04,4.2-3.48,1.09-1.28,1.95-2.73,2.56-4.3.54-1.35.84-2.79.87-4.25.04-2.16-.61-4.27-1.84-6.04-1.23-1.57-2.74-2.91-4.45-3.94Z"/>
  <path class="cls-1" d="M747.96,867.35c1.79-.2,3.6.22,5.12,1.18.89,1.11,1.32,2.52,1.18,3.94v27.03c.05,1.01-.09,2.01-.41,2.97-.37.75-1.04,1.31-1.84,1.54-1.34.43-2.74.62-4.15.56v2.92h21.86v-2.92c-1.43.07-2.85-.14-4.2-.61-.77-.27-1.4-.84-1.74-1.59-.31-.94-.45-1.93-.41-2.92v-27.03c-.04-1.02.1-2.04.41-3.02.37-.75,1.04-1.31,1.84-1.54,1.32-.42,2.71-.61,4.09-.56v-2.92h-21.86l.1,2.97Z"/>
  <path class="cls-1" d="M824.84,876.61h3.02c-.05-2.08.48-4.14,1.54-5.94.72-1.14,1.83-1.97,3.12-2.35,1.46-.3,2.96-.44,4.45-.41h4.56v31.48c.16,1.41-.24,2.83-1.13,3.94-1.51.99-3.33,1.41-5.12,1.18v2.92h21.55v-2.92c-1.39.06-2.78-.14-4.09-.61-.8-.24-1.45-.82-1.79-1.59-.28-.95-.4-1.93-.36-2.92v-31.48h5.48c1.19-.02,2.38.14,3.53.46,1.22.42,2.25,1.25,2.92,2.35,1.06,1.79,1.66,3.81,1.74,5.89h3.28v-12.18h-42.53l-.15,12.18Z"/>
  <path class="cls-1" d="M950.76,867.61c1.23-.05,2.46.12,3.63.51.87.36,1.33,1.18,1.33,2.51-.28,1.75-.99,3.4-2.05,4.81l-6.4,10.24-6.71-11.31c-.64-1.04-1.22-2.12-1.74-3.22-.22-.45-.34-.94-.36-1.43-.06-.51.16-1.01.56-1.33.43-.29.92-.46,1.43-.51h2.41v-2.92h-20.22v2.66c1.12-.02,2.23.24,3.22.77,1.03.8,1.89,1.82,2.51,2.97v.31l.31.41,10.8,18.02v9.62c.05,1.01-.09,2.01-.41,2.97-.34.76-.99,1.34-1.79,1.59-1.32.42-2.71.61-4.09.56v2.92h21.65v-2.92c-1.43.09-2.86-.14-4.2-.67-.78-.27-1.39-.87-1.69-1.64-.3-.91-.44-1.86-.41-2.82v-10.24l9.06-13.97c1.48-2.3,2.66-3.94,3.43-5.12.61-.88,1.39-1.63,2.3-2.2.91-.47,1.9-.75,2.92-.82h0v-2.87h-15.66l.15,3.12Z"/>
  <path class="cls-1" d="M821.87,806.65l.46-1.64h-5.99l-.36.56c-1.48,2.8-4.36,4.58-7.52,4.66-2.36-.02-4.66-.75-6.6-2.1-3.38-2.85-6.32-6.2-8.7-9.93,2.02-3.25,3.73-6.67,5.12-10.24,1.49-4.36,3.84-8.38,6.91-11.82,2.15-1.98,4.75-3.41,7.58-4.15h1.43v-6.76h-29.33v6.45h1.74c6.65.77,7.52,3.58,7.52,5.94-.2,2.49-.83,4.93-1.84,7.22-1,2.42-2.24,4.73-3.69,6.91l-16.89-23.39c10.7-5.78,16.17-11.93,16.17-18.32.06-4.49-2.2-8.69-5.99-11.11-3.71-2.61-8.15-4.01-12.69-3.99-5.01-.13-9.86,1.84-13.36,5.43-3.28,3.26-5.13,7.71-5.12,12.34.4,6.14,2.59,12.03,6.3,16.94-5.33,3.38-10.19,7.46-14.43,12.13-3.05,3.91-4.64,8.76-4.5,13.72-.08,4.46,1.17,8.84,3.58,12.59,4.64,7.04,12.5,11.28,20.93,11.31,8.5-.4,16.45-4.31,21.96-10.8,4.8,6.56,12.35,10.54,20.47,10.8,3.79.07,7.5-1.12,10.54-3.38,3.01-2.17,5.15-5.35,6.04-8.96l.26-.41ZM767.93,763.04c-3.08-3.74-5.07-8.25-5.73-13.05-.08-2.1.65-4.16,2.05-5.73,3.03-3.01,7.92-3.01,10.95,0,1.5,1.8,2.27,4.11,2.15,6.45,0,4.3-3.17,8.34-9.42,12.34h0ZM761.07,775.78c5.43,7.27,11.93,16.53,19.3,27.74-3.14,3.84-7.74,6.18-12.69,6.45-4.6-.12-8.92-2.26-11.82-5.84-3.22-3.37-5.05-7.83-5.12-12.49.11-3.15,1.18-6.18,3.07-8.7,1.96-2.83,4.45-5.27,7.32-7.17h-.05Z"/>
  <path class="cls-1" d="M1001.94,898.01h0c1.32-.29,2.26-1.46,2.25-2.82.07-.92-.31-1.82-1.02-2.41-1.08-.65-2.33-.95-3.58-.87-1.1,0-2.19.09-3.28.26v11.26h1.84v-5.12h1.28c1.17-.17,2.27.64,2.44,1.82,0,.06.01.12.02.18.08,1.01.34,2,.77,2.92h1.95c-.41-.91-.67-1.88-.77-2.87-.2-1.23-.92-2.05-1.89-2.35ZM999.48,897.29h-1.33v-4.09h1.33c2.1,0,2.82.97,2.82,2s-1.33,2.1-2.87,2.1h.05Z"/>
  <path class="cls-1" d="M1000.1,887.36h0c-5.65,0-10.24,4.58-10.24,10.24s4.58,10.24,10.24,10.24,10.24-4.58,10.24-10.24c0-5.65-4.58-10.24-10.24-10.24-.02,0-.03,0-.05,0h.05ZM1000.1,906.4c-4.82-.37-8.43-4.58-8.06-9.4.33-4.31,3.75-7.73,8.06-8.06h0c4.82.37,8.43,4.58,8.06,9.4-.33,4.31-3.75,7.73-8.06,8.06Z"/>
</svg>