<?xml version="1.0" encoding="UTF-8" standalone="no"?>
<!-- Created with Inkscape (http://www.inkscape.org/) -->

<svg
   version="1.1"
   id="svg1"
   width="569.38666"
   height="569.38666"
   viewBox="0 0 569.38666 569.38666"
   sodipodi:docname="digilent.eps"
   xmlns:inkscape="http://www.inkscape.org/namespaces/inkscape"
   xmlns:sodipodi="http://sodipodi.sourceforge.net/DTD/sodipodi-0.dtd"
   xmlns="http://www.w3.org/2000/svg"
   xmlns:svg="http://www.w3.org/2000/svg">
  <defs
     id="defs1" />
  <sodipodi:namedview
     id="namedview1"
     pagecolor="#ffffff"
     bordercolor="#000000"
     borderopacity="0.25"
     inkscape:showpageshadow="2"
     inkscape:pageopacity="0.0"
     inkscape:pagecheckerboard="0"
     inkscape:deskcolor="#d1d1d1">
    <inkscape:page
       x="0"
       y="0"
       inkscape:label="1"
       id="page1"
       width="569.38666"
       height="569.38666"
       margin="0"
       bleed="0" />
  </sodipodi:namedview>
  <g
     id="g1"
     inkscape:groupmode="layer"
     inkscape:label="1">
    <g
       id="group-R5">
      <path
         id="path2"
         d="M 4075.66,0 H 194.75 C 87.1914,0 0,87.1914 0,194.75 v 3880.91 c 0,107.56 87.1914,194.75 194.75,194.75 h 3880.91 c 107.56,0 194.75,-87.19 194.75,-194.75 V 194.75 C 4270.41,87.1914 4183.22,0 4075.66,0"
         style="fill:#ffffff;fill-opacity:1;fill-rule:nonzero;stroke:none"
         transform="matrix(0.13333333,0,0,-0.13333333,0,569.38667)" />
      <path
         id="path3"
         d="m 485.27,693.371 c 147.035,0 167.906,120.469 167.906,162.238 0,41.762 -20.871,161.431 -167.906,161.431 H 400.871 V 693.371 Z M 256.566,573.699 V 1135.9 H 485.27 c 241.418,0 314.933,-163.029 314.933,-280.291 0,-120.48 -73.515,-281.91 -314.933,-281.91 H 256.566"
         style="fill:#393536;fill-opacity:1;fill-rule:nonzero;stroke:none"
         transform="matrix(0.13333333,0,0,-0.13333333,0,569.38667)" />
      <path
         id="path4"
         d="M 1023.19,573.699 H 877.98 V 1135.9 h 145.21 V 573.699"
         style="fill:#393536;fill-opacity:1;fill-rule:nonzero;stroke:none"
         transform="matrix(0.13333333,0,0,-0.13333333,0,569.38667)" />
      <path
         id="path5"
         d="M 1386.86,766.059 V 881 h 266.82 V 658.148 c -62.62,-53.949 -137.04,-84.449 -236.87,-84.449 -241.41,0 -315.84,164.211 -315.84,281.5 0,114.16 74.43,280.701 315.84,280.701 103.46,0 177.88,-36.75 241.41,-95.39 l -89.85,-84.451 c -37.21,32.839 -101.64,61.781 -151.56,61.781 -147.03,0 -167.9,-120.422 -167.9,-161.078 0,-40.66 20.87,-167.332 167.9,-167.332 30.86,0 69.88,9.39 90.76,22.679 v 53.95 h -120.71"
         style="fill:#393536;fill-opacity:1;fill-rule:nonzero;stroke:none"
         transform="matrix(0.13333333,0,0,-0.13333333,0,569.38667)" />
      <path
         id="path6"
         d="m 1881.21,573.699 h -145.2 V 1135.9 h 145.2 V 573.699"
         style="fill:#393536;fill-opacity:1;fill-rule:nonzero;stroke:none"
         transform="matrix(0.13333333,0,0,-0.13333333,0,569.38667)" />
      <path
         id="path7"
         d="m 2105.12,693.371 h 229.61 V 573.699 H 1959 V 1135.9 h 146.12 V 693.371"
         style="fill:#393536;fill-opacity:1;fill-rule:nonzero;stroke:none"
         transform="matrix(0.13333333,0,0,-0.13333333,0,569.38667)" />
      <path
         id="path8"
         d="m 2557.73,791.352 v -97.981 h 294.05 V 573.699 H 2412.52 V 1135.9 h 439.26 V 1016.23 H 2557.73 V 911.02 h 229.61 V 791.352 h -229.61"
         style="fill:#393536;fill-opacity:1;fill-rule:nonzero;stroke:none"
         transform="matrix(0.13333333,0,0,-0.13333333,0,569.38667)" />
      <path
         id="path9"
         d="m 2937.73,1135.9 373.01,-285.431 v 278.351 h 145.21 V 576.852 l -7.26,-3.153 -373.01,287.781 V 578.418 h -146.12 v 555.132 l 8.17,2.35"
         style="fill:#393536;fill-opacity:1;fill-rule:nonzero;stroke:none"
         transform="matrix(0.13333333,0,0,-0.13333333,0,569.38667)" />
      <path
         id="path10"
         d="m 3699.82,1016.23 h -166.08 v 119.67 h 480.1 v -119.67 h -167.9 V 573.699 h -146.12 v 442.531"
         style="fill:#393536;fill-opacity:1;fill-rule:nonzero;stroke:none"
         transform="matrix(0.13333333,0,0,-0.13333333,0,569.38667)" />
      <path
         id="path11"
         d="m 3958.35,635.309 c 6.35,0.23 7.53,4.941 7.53,7.761 0,2.578 -1.18,7.758 -7.99,7.758 H 3947.3 V 635.309 Z M 3947.3,603.57 h -13.4 v 59.719 h 23.51 c 17.16,0 22.34,-12 22.34,-20.219 0,-7.531 -5.41,-14.582 -11.52,-18.101 l 12.22,-21.399 h -15.75 l -9.88,18.809 h -7.52 z m 51.73,29.621 c 0,24.93 -19.75,44.911 -44.67,44.911 -24.93,0 -44.67,-19.981 -44.67,-44.911 0,-24.921 19.74,-44.671 44.67,-44.671 24.92,0 44.67,19.75 44.67,44.671 z m 14.81,0 c 0,-32.921 -26.57,-59.492 -59.48,-59.492 -30.34,0 -59.49,25.403 -59.49,59.961 0,30.328 25.86,59.02 59.49,59.02 32.91,0 59.48,-26.571 59.48,-59.489"
         style="fill:#393536;fill-opacity:1;fill-rule:nonzero;stroke:none"
         transform="matrix(0.13333333,0,0,-0.13333333,0,569.38667)" />
      <path
         id="path12"
         d="m 370.57,305.809 c 0,14.543 -2.238,26.472 -6.675,35.882 -4.442,9.399 -11.036,16.368 -19.711,20.887 -8.711,4.524 -19.422,6.801 -32.047,6.801 H 288.07 V 240.988 h 19.711 c 21.172,0 36.934,5.41 47.278,16.282 10.339,10.839 15.511,27.039 15.511,48.539 z m 34.328,1.019 c 0,-20.476 -3.91,-37.668 -11.687,-51.469 -7.734,-13.851 -18.934,-24.269 -33.555,-31.269 -14.574,-7.012 -32.25,-10.512 -52.894,-10.512 h -51.508 v 182.961 h 56.883 c 18.976,0 35.347,-3.418 49.191,-10.258 13.844,-6.851 24.555,-16.863 32.168,-30.101 7.574,-13.27 11.402,-29.68 11.402,-49.352"
         style="fill:#1b448c;fill-opacity:1;fill-rule:nonzero;stroke:none"
         transform="matrix(0.13333333,0,0,-0.13333333,0,569.38667)" />
      <path
         id="path13"
         d="M 466.633,352.441 V 213.578 h -32.254 v 138.863 z m -16.129,53.539 c 4.766,0 8.961,-1.218 12.543,-3.699 3.586,-2.492 5.418,-6.883 5.418,-13.203 0,-6.137 -1.832,-10.539 -5.418,-13.187 -3.582,-2.653 -7.777,-3.95 -12.543,-3.95 -5.129,0 -9.406,1.297 -12.824,3.95 -3.422,2.648 -5.09,7.05 -5.09,13.187 0,6.32 1.668,10.711 5.09,13.203 3.418,2.481 7.695,3.699 12.824,3.699"
         style="fill:#1b448c;fill-opacity:1;fill-rule:nonzero;stroke:none"
         transform="matrix(0.13333333,0,0,-0.13333333,0,569.38667)" />
      <path
         id="path14"
         d="m 556.543,328.621 c -6.477,0 -11.973,-1.762 -16.492,-5.262 -4.563,-3.5 -7.942,-8.668 -10.262,-15.507 -2.32,-6.801 -3.465,-15.352 -3.465,-25.622 0,-15.019 2.567,-26.378 7.699,-34.082 5.129,-7.648 12.786,-11.519 23.047,-11.519 5.825,0 10.75,0.73 14.864,2.199 4.113,1.422 7.453,3.82 10.14,7.16 2.645,3.34 4.641,7.621 5.985,12.832 1.382,5.168 2.078,11.481 2.078,18.809 v 4.891 c 0,11.082 -1.223,19.988 -3.586,26.75 -2.403,6.761 -6.028,11.648 -10.91,14.738 -4.848,3.062 -11.243,4.613 -19.098,4.613 z M 548.113,355 c 8.711,0 16.571,-1.711 23.575,-5.129 7.003,-3.422 12.867,-8.512 17.671,-15.351 h 1.266 l 3.094,17.921 h 26.875 V 212.559 c 0,-13.149 -2.442,-24.231 -7.41,-33.18 -4.969,-8.957 -12.379,-15.758 -22.274,-20.359 -9.937,-4.61 -22.316,-6.93 -37.18,-6.93 -9.894,0 -19.054,0.648 -27.406,1.918 -8.386,1.301 -16.328,3.461 -23.82,6.551 v 26.632 c 7.859,-3.421 16.25,-6.062 25.25,-7.941 8.957,-1.871 18.281,-2.809 28.055,-2.809 10.586,0 18.648,2.977 24.187,8.957 5.539,5.993 8.348,14.5 8.348,25.622 v 3.582 c 0,2.558 0.121,5.539 0.367,8.957 0.242,3.421 0.488,6.152 0.648,8.222 h -1.015 c -4.805,-7.16 -10.586,-12.422 -17.43,-15.761 -6.84,-3.34 -14.699,-5 -23.574,-5 -16.902,0 -30.137,6.308 -39.703,18.968 -9.571,12.621 -14.375,30.223 -14.375,52.77 0,22.562 4.886,40.242 14.617,53.023 9.734,12.828 23.129,19.219 40.234,19.219"
         style="fill:#1b448c;fill-opacity:1;fill-rule:nonzero;stroke:none"
         transform="matrix(0.13333333,0,0,-0.13333333,0,569.38667)" />
      <path
         id="path15"
         d="M 687.742,352.441 V 213.578 h -32.25 v 138.863 z m -16.125,53.539 c 4.766,0 8.957,-1.218 12.539,-3.699 3.586,-2.492 5.418,-6.883 5.418,-13.203 0,-6.137 -1.832,-10.539 -5.418,-13.187 -3.582,-2.653 -7.773,-3.95 -12.539,-3.95 -5.133,0 -9.406,1.297 -12.828,3.95 -3.422,2.648 -5.09,7.05 -5.09,13.187 0,6.32 1.668,10.711 5.09,13.203 3.422,2.481 7.695,3.699 12.828,3.699"
         style="fill:#1b448c;fill-opacity:1;fill-rule:nonzero;stroke:none"
         transform="matrix(0.13333333,0,0,-0.13333333,0,569.38667)" />
      <path
         id="path16"
         d="m 754.848,213.578 h -32.25 v 194.723 h 32.25 V 213.578"
         style="fill:#1b448c;fill-opacity:1;fill-rule:nonzero;stroke:none"
         transform="matrix(0.13333333,0,0,-0.13333333,0,569.38667)" />
      <path
         id="path17"
         d="m 845.531,331.18 c -8.508,0 -15.472,-2.77 -20.847,-8.309 -5.414,-5.57 -8.59,-13.801 -9.61,-24.75 h 59.696 c 0,6.508 -1.098,12.207 -3.215,17.18 -2.16,4.969 -5.336,8.84 -9.614,11.648 -4.273,2.813 -9.73,4.231 -16.41,4.231 z m 0,23.82 c 12.461,0 23.211,-2.52 32.172,-7.531 8.957,-5.051 15.918,-12.219 20.887,-21.539 4.93,-9.328 7.414,-20.61 7.414,-33.961 v -16.367 h -91.703 c 0.324,-12.672 3.828,-22.442 10.504,-29.364 6.636,-6.918 15.883,-10.386 27.648,-10.386 9.082,0 17.145,0.898 24.231,2.687 7.086,1.832 14.375,4.402 21.906,7.82 V 220.5 c -6.84,-3.25 -13.926,-5.66 -21.254,-7.16 -7.371,-1.551 -16.168,-2.32 -26.43,-2.32 -13.476,0 -25.488,2.601 -35.996,7.808 -10.504,5.223 -18.691,13.121 -24.594,23.703 -5.863,10.59 -8.836,23.739 -8.836,39.457 0,15.883 2.688,29.242 8.102,40.114 5.375,10.828 12.828,19.019 22.398,24.597 9.567,5.531 20.766,8.301 33.551,8.301"
         style="fill:#1b448c;fill-opacity:1;fill-rule:nonzero;stroke:none"
         transform="matrix(0.13333333,0,0,-0.13333333,0,569.38667)" />
      <path
         id="path18"
         d="m 1006.46,355 c 15.55,0 27.73,-3.988 36.53,-12.012 8.79,-8.058 13.19,-21.008 13.19,-38.968 v -90.442 h -32.29 v 84.051 c 0,10.422 -2.04,18.242 -6.15,23.449 -4.07,5.172 -10.59,7.781 -19.467,7.781 -12.988,0 -21.867,-4.031 -26.628,-12.129 -4.805,-8.152 -7.207,-19.878 -7.207,-35.269 v -67.883 h -32.254 v 138.863 h 24.839 l 4.602,-18.16 h 1.793 c 3.094,4.758 6.84,8.707 11.277,11.758 4.442,3.102 9.41,5.34 14.864,6.801 5.457,1.43 11.121,2.16 16.901,2.16"
         style="fill:#1b448c;fill-opacity:1;fill-rule:nonzero;stroke:none"
         transform="matrix(0.13333333,0,0,-0.13333333,0,569.38667)" />
      <path
         id="path19"
         d="m 1144.05,236.91 c 4.12,0 8.02,0.371 11.77,1.141 3.79,0.777 7.29,1.668 10.51,2.687 V 216.68 c -3.42,-1.551 -7.86,-2.899 -13.32,-4 -5.46,-1.09 -11.2,-1.66 -17.14,-1.66 -7.86,0 -14.99,1.339 -21.42,3.988 -6.39,2.64 -11.52,7.203 -15.35,13.683 -3.87,6.508 -5.78,15.547 -5.78,27.161 v 72.277 h -18.7 v 14.09 l 20.49,11.23 10.26,29.492 h 20.24 v -30.5 h 39.45 v -24.312 h -39.45 V 256.09 c 0,-6.469 1.71,-11.281 5.13,-14.449 3.42,-3.18 7.86,-4.731 13.31,-4.731"
         style="fill:#1b448c;fill-opacity:1;fill-rule:nonzero;stroke:none"
         transform="matrix(0.13333333,0,0,-0.13333333,0,569.38667)" />
      <path
         id="path20"
         d="M 1280.34,352.441 V 213.578 h -32.25 v 138.863 z m -16.12,53.539 c 4.76,0 8.96,-1.218 12.54,-3.699 3.58,-2.492 5.42,-6.883 5.42,-13.203 0,-6.137 -1.84,-10.539 -5.42,-13.187 -3.58,-2.653 -7.78,-3.95 -12.54,-3.95 -5.13,0 -9.41,1.297 -12.83,3.95 -3.42,2.648 -5.09,7.05 -5.09,13.187 0,6.32 1.67,10.711 5.09,13.203 3.42,2.481 7.7,3.699 12.83,3.699"
         style="fill:#1b448c;fill-opacity:1;fill-rule:nonzero;stroke:none"
         transform="matrix(0.13333333,0,0,-0.13333333,0,569.38667)" />
      <path
         id="path21"
         d="m 1409.71,253.809 c 0,-9.239 -2.2,-17.059 -6.64,-23.45 -4.43,-6.398 -10.99,-11.238 -19.58,-14.461 -8.63,-3.257 -19.18,-4.878 -31.68,-4.878 -9.73,0 -18.08,0.691 -25.09,2.031 -7,1.39 -13.68,3.5 -19.99,6.437 v 27.403 c 6.84,-3.262 14.42,-5.993 22.8,-8.192 8.35,-2.23 16.13,-3.328 23.34,-3.328 8.87,0 15.27,1.34 19.22,4.109 3.91,2.731 5.86,6.391 5.86,10.989 0,2.73 -0.77,5.222 -2.28,7.449 -1.55,2.203 -4.56,4.57 -9,7.051 -4.44,2.441 -11.16,5.582 -20.24,9.32 -8.87,3.59 -16.24,7.172 -22.15,10.75 -5.9,3.629 -10.34,7.902 -13.31,12.949 -3.02,5.051 -4.48,11.41 -4.48,19.102 0,12.461 4.92,21.91 14.86,28.301 9.89,6.437 22.96,9.609 39.17,9.609 8.55,0 16.62,-0.809 24.23,-2.441 7.61,-1.59 15.23,-4.2 22.93,-7.778 l -10.27,-23.863 c -6.31,2.73 -12.58,5.051 -18.81,6.922 -6.23,1.871 -12.58,2.808 -19.1,2.808 -7,0 -12.29,-1.058 -15.88,-3.168 -3.58,-2.16 -5.37,-5.089 -5.37,-8.839 0,-2.93 0.89,-5.422 2.69,-7.582 1.79,-2.11 4.96,-4.27 9.48,-6.391 4.52,-2.16 10.96,-4.93 19.35,-8.348 8.34,-3.211 15.51,-6.59 21.37,-10.09 5.91,-3.511 10.47,-7.82 13.73,-12.949 3.25,-5.133 4.84,-11.613 4.84,-19.472"
         style="fill:#1b448c;fill-opacity:1;fill-rule:nonzero;stroke:none"
         transform="matrix(0.13333333,0,0,-0.13333333,0,569.38667)" />
      <path
         id="path22"
         d="m 1568.85,355 c 15.55,0 27.73,-3.988 36.52,-12.012 8.8,-8.058 13.2,-21.008 13.2,-38.968 v -90.442 h -32.3 v 84.051 c 0,10.422 -2.03,18.242 -6.14,23.449 -4.08,5.172 -10.59,7.781 -19.47,7.781 -12.99,0 -21.87,-4.031 -26.63,-12.129 -4.8,-8.152 -7.21,-19.878 -7.21,-35.269 v -67.883 h -32.25 v 138.863 h 24.84 l 4.6,-18.16 h 1.8 c 3.09,4.758 6.84,8.707 11.27,11.758 4.44,3.102 9.41,5.34 14.87,6.801 5.45,1.43 11.11,2.16 16.9,2.16"
         style="fill:#1b448c;fill-opacity:1;fill-rule:nonzero;stroke:none"
         transform="matrix(0.13333333,0,0,-0.13333333,0,569.38667)" />
      <path
         id="path23"
         d="m 1677.49,283.25 c 0,-9.73 1.14,-18.039 3.46,-24.961 2.32,-6.918 5.9,-12.168 10.75,-15.758 4.89,-3.582 11.16,-5.371 18.85,-5.371 7.86,0 14.21,1.789 19.06,5.371 4.89,3.59 8.43,8.84 10.67,15.758 2.2,6.922 3.3,15.231 3.3,24.961 0,9.941 -1.14,18.25 -3.46,25.012 -2.28,6.746 -5.87,11.84 -10.75,15.347 -4.85,3.5 -11.16,5.25 -18.82,5.25 -11.64,0 -20.03,-3.91 -25.24,-11.769 -5.22,-7.86 -7.82,-19.141 -7.82,-33.84 z m 99.15,0 c 0,-11.602 -1.55,-21.859 -4.6,-30.742 -3.09,-8.879 -7.49,-16.406 -13.19,-22.637 -5.74,-6.269 -12.75,-10.961 -21.01,-14.133 -8.31,-3.136 -17.55,-4.718 -27.82,-4.718 -9.4,0 -18.12,1.582 -26.14,4.718 -8.02,3.172 -14.98,7.864 -20.89,14.133 -5.86,6.231 -10.46,13.758 -13.68,22.637 -3.26,8.883 -4.89,19.14 -4.89,30.742 0,15.398 2.65,28.379 7.94,38.969 5.3,10.59 12.95,18.691 22.97,24.351 9.98,5.621 21.79,8.43 35.47,8.43 12.99,0 24.39,-2.77 34.2,-8.301 9.82,-5.578 17.55,-13.687 23.17,-24.359 5.66,-10.66 8.47,-23.692 8.47,-39.09"
         style="fill:#1b448c;fill-opacity:1;fill-rule:nonzero;stroke:none"
         transform="matrix(0.13333333,0,0,-0.13333333,0,569.38667)" />
      <path
         id="path24"
         d="m 1896.81,273.281 c -0.86,3.25 -1.88,7.289 -3.1,12.168 -1.18,4.852 -2.4,9.942 -3.7,15.231 -1.27,5.289 -2.49,10.179 -3.59,14.621 -1.1,4.437 -1.83,7.859 -2.15,10.258 h -1.06 c -0.49,-2.399 -1.27,-5.821 -2.28,-10.258 -1.02,-4.442 -2.16,-9.332 -3.34,-14.621 -1.18,-5.289 -2.45,-10.422 -3.71,-15.352 -1.3,-4.969 -2.36,-9.078 -3.22,-12.297 l -16.12,-59.453 h -35.39 l -38.92,139.141 h 32.53 l 17.18,-66.367 c 1.19,-4.442 2.33,-9.493 3.47,-15.114 1.1,-5.66 2.07,-11.078 2.93,-16.289 0.85,-5.211 1.42,-9.437 1.79,-12.66 h 1.02 c 0.32,2.199 0.77,5.172 1.3,8.832 0.49,3.668 1.14,7.5 1.91,11.527 0.78,3.993 1.55,7.743 2.28,11.161 0.78,3.421 1.43,6.019 1.96,7.941 l 19.95,70.969 h 35.39 l 19.22,-70.969 c 0.85,-3.102 1.79,-7.09 2.81,-12.059 1.02,-4.961 1.95,-9.89 2.81,-14.863 0.85,-4.969 1.38,-9.039 1.54,-12.297 h 1.02 c 0.33,2.887 0.94,6.879 1.79,11.93 0.86,5.008 1.88,10.43 3.06,16.25 1.22,5.82 2.48,11.039 3.87,15.641 l 17.43,66.367 h 32 l -39.46,-139.141 h -35.87 l -15.35,59.703"
         style="fill:#1b448c;fill-opacity:1;fill-rule:nonzero;stroke:none"
         transform="matrix(0.13333333,0,0,-0.13333333,0,569.38667)" />
      <path
         id="path25"
         d="m 2128.67,328.859 c -7.49,0 -13.56,-1.468 -18.16,-4.48 -4.64,-2.969 -7.94,-7.527 -10.02,-13.68 -2.04,-6.148 -3.14,-13.847 -3.34,-23.09 v -4.07 c 0,-9.937 1.02,-18.289 2.97,-25.129 1.96,-6.84 5.3,-12.051 9.98,-15.629 4.72,-3.59 11.08,-5.383 19.1,-5.383 6.84,0 12.42,1.883 16.77,5.661 4.36,3.75 7.62,9.082 9.74,16.011 2.15,6.918 3.21,15.141 3.21,24.711 0,14.34 -2.44,25.449 -7.29,33.309 -4.88,7.859 -12.54,11.769 -22.96,11.769 z m 9.24,26.141 c 16.21,0 29.28,-6.02 39.22,-18.039 9.89,-12.051 14.86,-29.973 14.86,-53.711 0,-15.719 -2.32,-28.949 -6.92,-39.699 -4.65,-10.75 -11.04,-18.852 -19.22,-24.352 -8.23,-5.461 -17.8,-8.179 -28.71,-8.179 -6.68,0 -12.54,0.89 -17.67,2.679 -5.13,1.789 -9.49,4.121 -13.08,6.93 -3.58,2.801 -6.67,5.859 -9.24,9.082 h -2.03 c 0.69,-3.063 1.18,-6.52 1.54,-10.352 0.33,-3.871 0.49,-7.488 0.49,-10.91 V 152.09 h -32.25 v 200.351 h 26.1 l 4.64,-18.453 h 1.51 c 2.57,3.953 5.7,7.492 9.37,10.633 3.66,3.168 8.1,5.699 13.31,7.57 5.21,1.879 11.24,2.809 18.08,2.809"
         style="fill:#1b448c;fill-opacity:1;fill-rule:nonzero;stroke:none"
         transform="matrix(0.13333333,0,0,-0.13333333,0,569.38667)" />
      <path
         id="path26"
         d="m 2280.07,278.648 c -14.17,-0.488 -23.99,-2.929 -29.44,-7.289 -5.46,-4.347 -8.19,-10.218 -8.19,-17.55 0,-6.508 1.96,-11.2 5.86,-14.09 3.95,-2.93 8.96,-4.348 15.11,-4.348 9.41,0 17.35,2.68 23.86,8.059 6.48,5.371 9.74,13.351 9.74,23.941 V 279.18 Z M 2274.2,355 c 17.92,0 31.56,-3.871 40.85,-11.641 9.32,-7.781 13.96,-19.961 13.96,-36.531 v -93.25 h -22.8 l -6.39,19.223 h -1.02 c -3.95,-4.973 -7.98,-9.082 -12.18,-12.422 -4.19,-3.34 -8.96,-5.738 -14.33,-7.168 -5.42,-1.461 -11.93,-2.191 -19.63,-2.191 -8.18,0 -15.59,1.539 -22.15,4.601 -6.6,3.09 -11.77,7.809 -15.51,14.25 -3.75,6.387 -5.62,14.449 -5.62,24.188 0,14.371 5.25,25.16 15.75,32.41 10.51,7.25 26.43,11.242 47.77,11.929 l 24.11,0.77 v 6.891 c 0,8.91 -2.16,15.23 -6.44,18.972 -4.23,3.75 -10.22,5.617 -17.91,5.617 -7.01,0 -13.77,-1.019 -20.24,-3.046 -6.52,-2.043 -12.83,-4.442 -18.98,-7.172 l -10.22,22.558 c 6.8,3.582 14.62,6.473 23.42,8.672 8.79,2.238 17.99,3.34 27.56,3.34"
         style="fill:#1b448c;fill-opacity:1;fill-rule:nonzero;stroke:none"
         transform="matrix(0.13333333,0,0,-0.13333333,0,569.38667)" />
      <path
         id="path27"
         d="m 2435.9,355 c 2.04,0 4.44,-0.082 7.17,-0.238 2.73,-0.172 5.01,-0.532 6.92,-1.024 l -2.85,-29.968 c -1.51,0.332 -3.54,0.609 -5.98,0.898 -2.49,0.242 -4.69,0.363 -6.56,0.363 -5.13,0 -10.02,-0.812 -14.74,-2.441 -4.68,-1.629 -8.88,-3.988 -12.54,-7.172 -3.67,-3.168 -6.56,-7.207 -8.72,-12.168 -2.11,-4.93 -3.21,-10.832 -3.21,-17.68 v -71.992 h -32.25 v 138.863 h 24.84 l 4.6,-24.07 h 1.54 c 2.73,4.93 6.15,9.449 10.27,13.438 4.07,4.031 8.83,7.211 14.21,9.613 5.37,2.398 11.15,3.578 17.3,3.578"
         style="fill:#1b448c;fill-opacity:1;fill-rule:nonzero;stroke:none"
         transform="matrix(0.13333333,0,0,-0.13333333,0,569.38667)" />
      <path
         id="path28"
         d="m 2523,236.91 c 4.12,0 8.03,0.371 11.77,1.141 3.79,0.777 7.29,1.668 10.51,2.687 V 216.68 c -3.42,-1.551 -7.86,-2.899 -13.32,-4 -5.45,-1.09 -11.2,-1.66 -17.14,-1.66 -7.86,0 -14.99,1.339 -21.42,3.988 -6.39,2.64 -11.52,7.203 -15.35,13.683 -3.87,6.508 -5.78,15.547 -5.78,27.161 v 72.277 h -18.69 v 14.09 l 20.48,11.23 10.26,29.492 h 20.24 v -30.5 h 39.46 v -24.312 h -39.46 V 256.09 c 0,-6.469 1.71,-11.281 5.13,-14.449 3.42,-3.18 7.86,-4.731 13.31,-4.731"
         style="fill:#1b448c;fill-opacity:1;fill-rule:nonzero;stroke:none"
         transform="matrix(0.13333333,0,0,-0.13333333,0,569.38667)" />
      <path
         id="path29"
         d="m 2651.84,283.25 c 0,-9.73 1.14,-18.039 3.46,-24.961 2.32,-6.918 5.91,-12.168 10.75,-15.758 4.89,-3.582 11.16,-5.371 18.86,-5.371 7.86,0 14.21,1.789 19.05,5.371 4.89,3.59 8.43,8.84 10.67,15.758 2.2,6.922 3.3,15.231 3.3,24.961 0,9.941 -1.14,18.25 -3.46,25.012 -2.28,6.746 -5.86,11.84 -10.75,15.347 -4.85,3.5 -11.16,5.25 -18.81,5.25 -11.65,0 -20.04,-3.91 -25.25,-11.769 -5.21,-7.86 -7.82,-19.141 -7.82,-33.84 z m 99.16,0 c 0,-11.602 -1.55,-21.859 -4.61,-30.742 -3.09,-8.879 -7.49,-16.406 -13.19,-22.637 -5.74,-6.269 -12.74,-10.961 -21.01,-14.133 -8.31,-3.136 -17.55,-4.718 -27.81,-4.718 -9.41,0 -18.12,1.582 -26.14,4.718 -8.03,3.172 -14.99,7.864 -20.89,14.133 -5.87,6.231 -10.47,13.758 -13.69,22.637 -3.25,8.883 -4.88,19.14 -4.88,30.742 0,15.398 2.64,28.379 7.94,38.969 5.29,10.59 12.95,18.691 22.96,24.351 9.98,5.621 21.79,8.43 35.47,8.43 12.99,0 24.39,-2.77 34.21,-8.301 9.81,-5.578 17.55,-13.687 23.17,-24.359 5.66,-10.66 8.47,-23.692 8.47,-39.09"
         style="fill:#1b448c;fill-opacity:1;fill-rule:nonzero;stroke:none"
         transform="matrix(0.13333333,0,0,-0.13333333,0,569.38667)" />
      <path
         id="path30"
         d="m 2849.91,328.129 h -33.6 V 213.578 h -32.25 v 114.551 h -22.31 v 15.351 l 22.31,9.239 v 9.449 c 0,11.973 1.87,21.383 5.62,28.223 3.75,6.8 9.24,11.73 16.41,14.699 7.17,3.012 15.64,4.48 25.37,4.48 6.8,0 12.95,-0.531 18.45,-1.629 5.45,-1.14 9.97,-2.363 13.56,-3.75 l -8.19,-24.062 c -2.93,0.851 -6.11,1.672 -9.61,2.441 -3.5,0.77 -7.29,1.141 -11.4,1.141 -6.15,0 -10.67,-1.949 -13.6,-5.902 -2.89,-3.911 -4.36,-9.411 -4.36,-16.368 v -9 h 33.6 v -24.312"
         style="fill:#1b448c;fill-opacity:1;fill-rule:nonzero;stroke:none"
         transform="matrix(0.13333333,0,0,-0.13333333,0,569.38667)" />
      <path
         id="path31"
         d="m 3033.88,213.578 h -104.04 v 182.961 h 104.04 V 369.09 h -71.22 v -46.621 h 66.58 v -27.41 h -66.58 V 241.27 h 71.22 v -27.692"
         style="fill:#1b448c;fill-opacity:1;fill-rule:nonzero;stroke:none"
         transform="matrix(0.13333333,0,0,-0.13333333,0,569.38667)" />
      <path
         id="path32"
         d="m 3222.46,355 c 15.71,0 27.52,-3.988 35.5,-12.012 7.94,-8.058 11.89,-21.008 11.89,-38.968 v -90.442 h -32.29 v 84.293 c 0,10.258 -1.91,18 -5.74,23.207 -3.87,5.172 -9.77,7.781 -17.83,7.781 -11.24,0 -19.31,-3.668 -24.07,-10.988 -4.81,-7.383 -7.17,-18.043 -7.17,-32.051 v -72.242 h -32.29 v 84.293 c 0,6.84 -0.85,12.539 -2.56,17.188 -1.71,4.601 -4.28,8.062 -7.7,10.339 -3.42,2.321 -7.86,3.461 -13.32,3.461 -7.85,0 -14.08,-1.828 -18.69,-5.5 -4.6,-3.66 -7.85,-9 -9.73,-16 -1.91,-7 -2.85,-15.64 -2.85,-25.898 v -67.883 h -32.25 v 138.863 h 24.84 l 4.6,-18.16 h 1.79 c 2.94,4.758 6.48,8.707 10.63,11.758 4.2,3.102 8.88,5.34 14.09,6.801 5.21,1.43 10.47,2.16 15.76,2.16 10.42,0 19.22,-1.75 26.43,-5.25 7.16,-3.5 12.54,-8.922 16.12,-16.25 h 2.57 c 4.27,7.488 10.3,12.949 18.04,16.371 7.77,3.418 15.84,5.129 24.23,5.129"
         style="fill:#1b448c;fill-opacity:1;fill-rule:nonzero;stroke:none"
         transform="matrix(0.13333333,0,0,-0.13333333,0,569.38667)" />
      <path
         id="path33"
         d="m 3359.76,331.18 c -8.51,0 -15.47,-2.77 -20.84,-8.309 -5.42,-5.57 -8.6,-13.801 -9.61,-24.75 H 3389 c 0,6.508 -1.1,12.207 -3.22,17.18 -2.15,4.969 -5.33,8.84 -9.61,11.648 -4.27,2.813 -9.73,4.231 -16.41,4.231 z m 0,23.82 c 12.46,0 23.21,-2.52 32.17,-7.531 8.96,-5.051 15.92,-12.219 20.89,-21.539 4.93,-9.328 7.41,-20.61 7.41,-33.961 v -16.367 h -91.7 c 0.33,-12.672 3.83,-22.442 10.51,-29.364 6.63,-6.918 15.88,-10.386 27.65,-10.386 9.08,0 17.14,0.898 24.22,2.687 7.09,1.832 14.38,4.402 21.91,7.82 V 220.5 c -6.84,-3.25 -13.92,-5.66 -21.25,-7.16 -7.37,-1.551 -16.17,-2.32 -26.43,-2.32 -13.48,0 -25.49,2.601 -36,7.808 -10.5,5.223 -18.69,13.121 -24.59,23.703 -5.87,10.59 -8.84,23.739 -8.84,39.457 0,15.883 2.69,29.242 8.1,40.114 5.38,10.828 12.83,19.019 22.4,24.597 9.57,5.531 20.77,8.301 33.55,8.301"
         style="fill:#1b448c;fill-opacity:1;fill-rule:nonzero;stroke:none"
         transform="matrix(0.13333333,0,0,-0.13333333,0,569.38667)" />
      <path
         id="path34"
         d="m 3519.14,355 c 2.04,0 4.44,-0.082 7.17,-0.238 2.73,-0.172 5.01,-0.532 6.92,-1.024 l -2.85,-29.968 c -1.5,0.332 -3.54,0.609 -5.98,0.898 -2.49,0.242 -4.69,0.363 -6.56,0.363 -5.13,0 -10.02,-0.812 -14.74,-2.441 -4.68,-1.629 -8.88,-3.988 -12.54,-7.172 -3.67,-3.168 -6.56,-7.207 -8.72,-12.168 -2.11,-4.93 -3.21,-10.832 -3.21,-17.68 v -71.992 h -32.25 v 138.863 h 24.84 l 4.6,-24.07 h 1.54 c 2.73,4.93 6.15,9.449 10.27,13.438 4.07,4.031 8.83,7.211 14.21,9.613 5.37,2.398 11.15,3.578 17.3,3.578"
         style="fill:#1b448c;fill-opacity:1;fill-rule:nonzero;stroke:none"
         transform="matrix(0.13333333,0,0,-0.13333333,0,569.38667)" />
      <path
         id="path35"
         d="m 3646.96,253.809 c 0,-9.239 -2.19,-17.059 -6.63,-23.45 -4.44,-6.398 -11,-11.238 -19.59,-14.461 -8.63,-3.257 -19.18,-4.878 -31.68,-4.878 -9.73,0 -18.08,0.691 -25.08,2.031 -7.01,1.39 -13.69,3.5 -20,6.437 v 27.403 c 6.84,-3.262 14.42,-5.993 22.81,-8.192 8.34,-2.23 16.12,-3.328 23.33,-3.328 8.88,0 15.27,1.34 19.22,4.109 3.91,2.731 5.86,6.391 5.86,10.989 0,2.73 -0.77,5.222 -2.28,7.449 -1.55,2.203 -4.56,4.57 -9,7.051 -4.44,2.441 -11.15,5.582 -20.24,9.32 -8.87,3.59 -16.24,7.172 -22.15,10.75 -5.9,3.629 -10.34,7.902 -13.31,12.949 -3.02,5.051 -4.48,11.41 -4.48,19.102 0,12.461 4.93,21.91 14.86,28.301 9.9,6.437 22.97,9.609 39.17,9.609 8.56,0 16.62,-0.809 24.23,-2.441 7.62,-1.59 15.23,-4.2 22.93,-7.778 l -10.26,-23.863 c -6.32,2.73 -12.59,5.051 -18.82,6.922 -6.23,1.871 -12.58,2.808 -19.09,2.808 -7.01,0 -12.3,-1.058 -15.89,-3.168 -3.58,-2.16 -5.37,-5.089 -5.37,-8.839 0,-2.93 0.9,-5.422 2.69,-7.582 1.79,-2.11 4.97,-4.27 9.49,-6.391 4.52,-2.16 10.95,-4.93 19.34,-8.348 8.34,-3.211 15.51,-6.59 21.38,-10.09 5.9,-3.511 10.46,-7.82 13.72,-12.949 3.26,-5.133 4.84,-11.613 4.84,-19.472"
         style="fill:#1b448c;fill-opacity:1;fill-rule:nonzero;stroke:none"
         transform="matrix(0.13333333,0,0,-0.13333333,0,569.38667)" />
      <path
         id="path36"
         d="m 3696.44,283.25 c 0,-9.73 1.14,-18.039 3.46,-24.961 2.32,-6.918 5.9,-12.168 10.75,-15.758 4.89,-3.582 11.16,-5.371 18.85,-5.371 7.86,0 14.22,1.789 19.06,5.371 4.89,3.59 8.43,8.84 10.67,15.758 2.2,6.922 3.3,15.231 3.3,24.961 0,9.941 -1.14,18.25 -3.46,25.012 -2.28,6.746 -5.87,11.84 -10.75,15.347 -4.85,3.5 -11.16,5.25 -18.82,5.25 -11.64,0 -20.03,-3.91 -25.24,-11.769 -5.21,-7.86 -7.82,-19.141 -7.82,-33.84 z m 99.15,0 c 0,-11.602 -1.54,-21.859 -4.6,-30.742 -3.09,-8.879 -7.49,-16.406 -13.19,-22.637 -5.74,-6.269 -12.75,-10.961 -21.01,-14.133 -8.31,-3.136 -17.55,-4.718 -27.82,-4.718 -9.4,0 -18.12,1.582 -26.14,4.718 -8.02,3.172 -14.98,7.864 -20.89,14.133 -5.86,6.231 -10.46,13.758 -13.68,22.637 -3.26,8.883 -4.89,19.14 -4.89,30.742 0,15.398 2.65,28.379 7.94,38.969 5.3,10.59 12.95,18.691 22.97,24.351 9.98,5.621 21.79,8.43 35.47,8.43 12.99,0 24.39,-2.77 34.2,-8.301 9.82,-5.578 17.55,-13.687 23.17,-24.359 5.66,-10.66 8.47,-23.692 8.47,-39.09"
         style="fill:#1b448c;fill-opacity:1;fill-rule:nonzero;stroke:none"
         transform="matrix(0.13333333,0,0,-0.13333333,0,569.38667)" />
      <path
         id="path37"
         d="m 3896.78,355 c 15.56,0 27.73,-3.988 36.53,-12.012 8.79,-8.058 13.19,-21.008 13.19,-38.968 v -90.442 h -32.29 v 84.051 c 0,10.422 -2.04,18.242 -6.15,23.449 -4.07,5.172 -10.59,7.781 -19.46,7.781 -12.99,0 -21.87,-4.031 -26.63,-12.129 -4.81,-8.152 -7.21,-19.878 -7.21,-35.269 v -67.883 h -32.25 v 138.863 h 24.84 l 4.6,-18.16 h 1.79 c 3.1,4.758 6.84,8.707 11.28,11.758 4.44,3.102 9.41,5.34 14.86,6.801 5.46,1.43 11.12,2.16 16.9,2.16"
         style="fill:#1b448c;fill-opacity:1;fill-rule:nonzero;stroke:none"
         transform="matrix(0.13333333,0,0,-0.13333333,0,569.38667)" />
      <path
         id="path38"
         d="m 3975.94,229.988 c 0,7.332 1.92,12.461 5.66,15.352 3.75,2.89 8.35,4.359 13.85,4.359 5.45,0 10.1,-1.469 13.96,-4.359 3.83,-2.891 5.75,-8.02 5.75,-15.352 0,-7 -1.92,-12.047 -5.75,-15.148 -3.86,-3.051 -8.51,-4.602 -13.96,-4.602 -5.5,0 -10.1,1.551 -13.85,4.602 -3.74,3.101 -5.66,8.148 -5.66,15.148"
         style="fill:#1b448c;fill-opacity:1;fill-rule:nonzero;stroke:none"
         transform="matrix(0.13333333,0,0,-0.13333333,0,569.38667)" />
      <path
         id="path39"
         d="m 3674.06,1602.19 c 13.33,23.08 15.71,44.36 6.72,59.91 -8.97,15.55 -28.6,24.11 -55.25,24.11 h -2260.56 -16.38 l 8.19,14.19 750.89,1300.55 -183.16,317.26 L 845.578,1449.45 c -13.316,-23.07 -15.726,-44.35 -6.742,-59.93 8.984,-15.55 28.613,-24.11 55.262,-24.11 l 2535.322,0.02 c 28.53,0 61.22,9.79 92.02,27.59 30.81,17.78 55.64,41.19 69.91,65.89 l 82.71,143.28"
         style="fill:#00894d;fill-opacity:1;fill-rule:nonzero;stroke:none"
         transform="matrix(0.13333333,0,0,-0.13333333,0,569.38667)" />
      <path
         id="path40"
         d="m 1916.44,3417.73 8.19,14.17 8.18,-14.17 750.86,-1300.55 h 366.35 L 1971.06,3985.94 c -13.3,23.07 -30.53,35.78 -48.5,35.78 -17.96,0 -35.19,-12.71 -48.51,-35.78 L 606.406,1790.27 c -14.273,-24.71 -22.133,-57.9 -22.133,-93.48 0,-35.59 7.86,-68.79 22.133,-93.51 l 82.723,-143.27 c 13.309,-23.06 30.547,-35.77 48.496,-35.77 17.969,0 35.195,12.71 48.535,35.77 l 1130.28,1957.72"
         style="fill:#00894d;fill-opacity:1;fill-rule:nonzero;stroke:none"
         transform="matrix(0.13333333,0,0,-0.13333333,0,569.38667)" />
      <path
         id="path41"
         d="M 3652.87,1826.8 2385.18,4022.44 c -14.25,24.71 -39.08,48.11 -69.89,65.9 -30.8,17.8 -63.5,27.59 -92.03,27.59 h -165.41 c -26.67,0 -46.28,-8.56 -55.26,-24.13 -9.01,-15.56 -6.61,-36.84 6.71,-59.91 l 1130.29,-1957.7 8.2,-14.18 H 3131.4 1629.65 l -183.15,-317.27 2157.85,0.02 c 26.65,0 46.28,8.57 55.27,24.12 8.98,15.57 6.59,36.84 -6.75,59.92"
         style="fill:#59c134;fill-opacity:1;fill-rule:nonzero;stroke:none"
         transform="matrix(0.13333333,0,0,-0.13333333,0,569.38667)" />
    </g>
  </g>
</svg>
